# xmcd
# Track frame offsets:
# 150
# 12814
# 25520
# 35832
# 45355
# 55352
# 65538
# 77848
# 88106
# 97485
# 110599
# 122339
#
# Disc length: 1765 seconds
# Revision: 0
# Processed by: cddbd v1.5.1PL2 Copyright (c) Steve Scherf et al.
# Submitted via: VisiTrax 2.10.0.248 - For more info visit www.synapsa.com
#
DISCID=9906e30c
DTITLE=Merle Haggard - Swinging Doors
DYEAR=1966
DGENRE=Country
TTITLE0=Swinging Doors
TTITLE1=If I Could Be Him
TTITLE2=The Longer You Wait
TTITLE3=I'll Look Over You
TTITLE4=I Can't Stand Me
TTITLE5=The Girl Turned Ripe
TTITLE6=The Bottle Let Me Down
TTITLE7=No More You And Me
TTITLE8=Someone Else You've Known
TTITLE9=High On A Hill Top
TTITLE10=This Town's Not Big Enough
TTITLE11=Shade Tree (Fix It Man)
EXTD=
EXTT0=
EXTT1=
EXTT2=
EXTT3=
EXTT4=
EXTT5=
EXTT6=
EXTT7=
EXTT8=
EXTT9=
EXTT10=
EXTT11=
PLAYORDER=
